<?xml version="1.0" encoding="UTF-8" standalone="no"?>
<svg
   version="1.1"
   style="display:block"
   viewBox="0 0 1536 1536"
   width="384"
   height="384"
   preserveAspectRatio="none"
   id="svg16"
   sodipodi:docname="AIVector_favicon-384x384-center.svg"
   xmlns:inkscape="http://www.inkscape.org/namespaces/inkscape"
   xmlns:sodipodi="http://sodipodi.sourceforge.net/DTD/sodipodi-0.dtd"
   xmlns="http://www.w3.org/2000/svg"
   xmlns:svg="http://www.w3.org/2000/svg">
  <sodipodi:namedview
     id="namedview16"
     pagecolor="#ffffff"
     bordercolor="#000000"
     borderopacity="0.25"
     inkscape:showpageshadow="2"
     inkscape:pageopacity="0.0"
     inkscape:pagecheckerboard="0"
     inkscape:deskcolor="#d1d1d1"
     showgrid="false" />
  <defs
     id="defs10">
    <linearGradient
       id="Gradient1"
       gradientUnits="userSpaceOnUse"
       x1="1167.38"
       y1="396.82999"
       x2="1236.54"
       y2="722.52197">
      <stop
         class="stop0"
         offset="0"
         stop-opacity="1"
         stop-color="rgb(1,75,80)"
         id="stop1" />
      <stop
         class="stop1"
         offset="1"
         stop-opacity="1"
         stop-color="rgb(2,124,94)"
         id="stop2" />
    </linearGradient>
    <linearGradient
       id="Gradient2"
       gradientUnits="userSpaceOnUse"
       x1="221.84801"
       y1="833.38599"
       x2="552.39502"
       y2="985.37201">
      <stop
         class="stop0"
         offset="0"
         stop-opacity="1"
         stop-color="rgb(1,42,41)"
         id="stop3" />
      <stop
         class="stop1"
         offset="1"
         stop-opacity="1"
         stop-color="rgb(2,103,95)"
         id="stop4" />
    </linearGradient>
    <linearGradient
       id="Gradient3"
       gradientUnits="userSpaceOnUse"
       x1="589.90399"
       y1="355.38"
       x2="705.42297"
       y2="551.60901">
      <stop
         class="stop0"
         offset="0"
         stop-opacity="1"
         stop-color="rgb(1,33,31)"
         id="stop5" />
      <stop
         class="stop1"
         offset="1"
         stop-opacity="1"
         stop-color="rgb(1,70,67)"
         id="stop6" />
    </linearGradient>
    <linearGradient
       id="Gradient4"
       gradientUnits="userSpaceOnUse"
       x1="997.31403"
       y1="1101.52"
       x2="879.49902"
       y2="892.44098">
      <stop
         class="stop0"
         offset="0"
         stop-opacity="1"
         stop-color="rgb(2,217,9)"
         id="stop7" />
      <stop
         class="stop1"
         offset="1"
         stop-opacity="1"
         stop-color="rgb(0,139,70)"
         id="stop8" />
    </linearGradient>
    <linearGradient
       id="Gradient5"
       gradientUnits="userSpaceOnUse"
       x1="678.18201"
       y1="531.52197"
       x2="916.5"
       y2="918.09698">
      <stop
         class="stop0"
         offset="0"
         stop-opacity="1"
         stop-color="rgb(1,64,75)"
         id="stop9" />
      <stop
         class="stop1"
         offset="1"
         stop-opacity="1"
         stop-color="rgb(1,141,88)"
         id="stop10" />
    </linearGradient>
    <filter
       style="color-interpolation-filters:sRGB"
       inkscape:label="Color Shift"
       id="filter89"
       x="0"
       y="0"
       width="1"
       height="1">
      <feColorMatrix
         type="hueRotate"
         values="360"
         result="color1"
         id="feColorMatrix88" />
      <feColorMatrix
         type="saturate"
         values="0"
         result="fbSourceGraphic"
         id="feColorMatrix89" />
      <feColorMatrix
         result="fbSourceGraphicAlpha"
         in="fbSourceGraphic"
         values="0 0 0 -1 0 0 0 0 -1 0 0 0 0 -1 0 0 0 0 1 0"
         id="feColorMatrix102" />
      <feColorMatrix
         id="feColorMatrix103"
         type="hueRotate"
         values="360"
         result="color1"
         in="fbSourceGraphic" />
      <feColorMatrix
         id="feColorMatrix104"
         type="saturate"
         values="0"
         result="color2" />
    </filter>
    <filter
       style="color-interpolation-filters:sRGB"
       inkscape:label="Color Shift"
       id="filter91"
       x="0"
       y="0"
       width="1"
       height="1">
      <feColorMatrix
         type="hueRotate"
         values="360"
         result="color1"
         id="feColorMatrix90" />
      <feColorMatrix
         type="saturate"
         values="0"
         result="fbSourceGraphic"
         id="feColorMatrix91" />
      <feColorMatrix
         result="fbSourceGraphicAlpha"
         in="fbSourceGraphic"
         values="0 0 0 -1 0 0 0 0 -1 0 0 0 0 -1 0 0 0 0 1 0"
         id="feColorMatrix105" />
      <feColorMatrix
         id="feColorMatrix106"
         type="hueRotate"
         values="360"
         result="color1"
         in="fbSourceGraphic" />
      <feColorMatrix
         id="feColorMatrix107"
         type="saturate"
         values="0"
         result="color2" />
    </filter>
    <filter
       style="color-interpolation-filters:sRGB"
       inkscape:label="Color Shift"
       id="filter93"
       x="0"
       y="0"
       width="1"
       height="1">
      <feColorMatrix
         type="hueRotate"
         values="360"
         result="color1"
         id="feColorMatrix92" />
      <feColorMatrix
         type="saturate"
         values="0"
         result="fbSourceGraphic"
         id="feColorMatrix93" />
      <feColorMatrix
         result="fbSourceGraphicAlpha"
         in="fbSourceGraphic"
         values="0 0 0 -1 0 0 0 0 -1 0 0 0 0 -1 0 0 0 0 1 0"
         id="feColorMatrix108" />
      <feColorMatrix
         id="feColorMatrix109"
         type="hueRotate"
         values="360"
         result="color1"
         in="fbSourceGraphic" />
      <feColorMatrix
         id="feColorMatrix110"
         type="saturate"
         values="0"
         result="color2" />
    </filter>
    <filter
       style="color-interpolation-filters:sRGB"
       inkscape:label="Color Shift"
       id="filter95"
       x="0"
       y="0"
       width="1"
       height="1">
      <feColorMatrix
         type="hueRotate"
         values="360"
         result="color1"
         id="feColorMatrix94" />
      <feColorMatrix
         type="saturate"
         values="0"
         result="fbSourceGraphic"
         id="feColorMatrix95" />
      <feColorMatrix
         result="fbSourceGraphicAlpha"
         in="fbSourceGraphic"
         values="0 0 0 -1 0 0 0 0 -1 0 0 0 0 -1 0 0 0 0 1 0"
         id="feColorMatrix111" />
      <feColorMatrix
         id="feColorMatrix112"
         type="hueRotate"
         values="360"
         result="color1"
         in="fbSourceGraphic" />
      <feColorMatrix
         id="feColorMatrix113"
         type="saturate"
         values="0"
         result="color2" />
    </filter>
    <filter
       style="color-interpolation-filters:sRGB"
       inkscape:label="Color Shift"
       id="filter97"
       x="0"
       y="0"
       width="1"
       height="1">
      <feColorMatrix
         type="hueRotate"
         values="360"
         result="color1"
         id="feColorMatrix96" />
      <feColorMatrix
         type="saturate"
         values="0"
         result="fbSourceGraphic"
         id="feColorMatrix97" />
      <feColorMatrix
         result="fbSourceGraphicAlpha"
         in="fbSourceGraphic"
         values="0 0 0 -1 0 0 0 0 -1 0 0 0 0 -1 0 0 0 0 1 0"
         id="feColorMatrix114" />
      <feColorMatrix
         id="feColorMatrix115"
         type="hueRotate"
         values="360"
         result="color1"
         in="fbSourceGraphic" />
      <feColorMatrix
         id="feColorMatrix116"
         type="saturate"
         values="0"
         result="color2" />
    </filter>
    <filter
       style="color-interpolation-filters:sRGB"
       inkscape:label="Color Shift"
       id="filter99"
       x="0"
       y="0"
       width="1"
       height="1">
      <feColorMatrix
         type="hueRotate"
         values="360"
         result="color1"
         id="feColorMatrix98" />
      <feColorMatrix
         type="saturate"
         values="0"
         result="fbSourceGraphic"
         id="feColorMatrix99" />
      <feColorMatrix
         result="fbSourceGraphicAlpha"
         in="fbSourceGraphic"
         values="0 0 0 -1 0 0 0 0 -1 0 0 0 0 -1 0 0 0 0 1 0"
         id="feColorMatrix117" />
      <feColorMatrix
         id="feColorMatrix118"
         type="hueRotate"
         values="360"
         result="color1"
         in="fbSourceGraphic" />
      <feColorMatrix
         id="feColorMatrix119"
         type="saturate"
         values="0"
         result="color2" />
    </filter>
    <filter
       style="color-interpolation-filters:sRGB"
       inkscape:label="Color Shift"
       id="filter101"
       x="0"
       y="0"
       width="1"
       height="1">
      <feColorMatrix
         type="hueRotate"
         values="360"
         result="color1"
         id="feColorMatrix100" />
      <feColorMatrix
         type="saturate"
         values="0"
         result="fbSourceGraphic"
         id="feColorMatrix101" />
      <feColorMatrix
         result="fbSourceGraphicAlpha"
         in="fbSourceGraphic"
         values="0 0 0 -1 0 0 0 0 -1 0 0 0 0 -1 0 0 0 0 1 0"
         id="feColorMatrix120" />
      <feColorMatrix
         id="feColorMatrix121"
         type="hueRotate"
         values="360"
         result="color1"
         in="fbSourceGraphic" />
      <feColorMatrix
         id="feColorMatrix122"
         type="saturate"
         values="0"
         result="color2" />
    </filter>
  </defs>
  <path
     fill="url(#Gradient5)"
     d="m 522.063,391.818 c 20.118,-1.698 57.151,-0.545 78.235,-0.533 l 160.995,-0.091 c 28.698,-0.032 67.552,1.001 95.176,-1.254 6.35,12.001 17.064,23.89 22.202,35.099 13.594,18.476 29.94,45.771 42.884,65.335 36.281,54.249 72.028,108.855 107.235,163.808 5.08,7.771 47.35,68.69 47.53,73.581 1.18,32.748 1.62,77.68 0.49,110.513 0.93,50.773 -0.39,102.708 0.06,153.605 0.1,11.449 1.08,61.409 -1.08,69.589 -14.16,2.68 -48.43,1.95 -63.77,1.89 l -97.064,-0.2 -111.473,0.14 c -15.947,-0.01 -47.396,0.75 -61.917,-1.64 -9.147,-16.28 -23.004,-32.79 -32.139,-48.41 -2.311,-2.73 -8.199,-12.03 -10.621,-15.528 -9.587,-13.559 -18.859,-27.339 -27.807,-41.328 -21.501,-33.591 -43.183,-67.065 -65.046,-100.42 -22.661,-34.301 -46.196,-68.207 -67.706,-103.165 -4.422,-7.189 -13.216,-16.588 -15.837,-21.722 -0.263,-7.801 -0.679,-15.596 -1.247,-23.38 l 0.202,-9.095 c -1.811,-80.733 0.456,-162.172 -0.193,-242.962 -0.168,-20.883 -0.198,-43.028 0.891,-63.832 z"
     id="path10"
     style="fill:url(#Gradient5);filter:url(#filter89)" />
  <path
     fill="url(#Gradient4)"
     d="m 709.427,1013.25 c 4.558,0.82 6.778,7.53 10.898,12.11 2.232,-1.73 0.843,-8.43 1.869,-11.41 1.129,-3.27 3.34,-5.89 5.915,-8.15 5.533,-4.84 12.869,-7.539 18.648,-12.134 10.799,-8.587 19.512,-19.474 30.941,-27.426 8.816,-6.133 19.145,-10.307 27.635,-16.781 9.35,-7.129 17.196,-16.441 27.139,-22.782 12.416,-7.918 27.422,-11.405 39.521,-19.82 15.119,-10.514 28.143,-26.116 44.288,-34.533 17.131,-8.931 37.43,-12.936 55.567,-19.784 13.855,-5.232 72.752,-35.637 83.822,-31.819 3.58,1.233 6.21,2.307 9.93,1.081 2.3,-0.758 4.66,-1.293 7.01,-1.9 4.46,2.927 1.41,12.138 4.2,18.374 0.93,50.773 -0.39,102.708 0.06,153.605 0.1,11.449 1.08,61.409 -1.08,69.589 -14.16,2.68 -48.43,1.95 -63.77,1.89 l -97.064,-0.2 -111.473,0.14 c -15.947,-0.01 -47.396,0.75 -61.917,-1.64 -9.147,-16.28 -23.004,-32.79 -32.139,-48.41 z"
     id="path11"
     style="fill:url(#Gradient4);filter:url(#filter91)" />
  <path
     fill="url(#Gradient3)"
     d="m 522.063,391.818 c 20.118,-1.698 57.151,-0.545 78.235,-0.533 l 160.995,-0.091 c 28.698,-0.032 67.552,1.001 95.176,-1.254 6.35,12.001 17.064,23.89 22.202,35.099 -3.493,-2.044 -5.806,-3.279 -9.587,-4.924 -14.94,12.209 -28.995,26.92 -47.09,34.973 -7.14,3.177 -24.193,6.436 -31.119,9.749 -8.257,3.949 -15.86,10.113 -25.277,14.477 -11.523,5.341 -25.183,18.504 -36.604,26.051 l -112.191,75.138 c -6.516,4.358 -16.519,7.395 -22.023,11.875 -11.06,9.002 -22.413,18.115 -33.291,27.322 -11.746,9.942 -28.843,18.673 -35.213,32.913 -5.902,13.193 -0.639,33.239 -4.911,45.999 -1.811,-80.733 0.456,-162.172 -0.193,-242.962 -0.168,-20.883 -0.198,-43.028 0.891,-63.832 z"
     id="path12"
     style="fill:url(#Gradient3);filter:url(#filter93)" />
  <path
     fill="url(#Gradient2)"
     d="m 267.114,726.384 164.668,-0.601 55.051,-0.5 c 8.073,-0.062 25.145,-0.525 32.546,0.638 -0.012,5.384 0.147,6.175 1.656,11.365 2.498,8.683 1.236,90.132 1.322,105.619 l 0.728,147.555 c -0.027,25.98 1.772,45.91 -1.181,71.85 -12.375,1.44 -31.892,0.67 -44.868,0.54 -23.82,-0.34 -47.642,-0.44 -71.464,-0.3 -47.381,0.26 -94.763,0.17 -142.143,-0.26 -22.437,-0.08 -55.129,0.94 -76.298,-0.73 -0.925,-11.76 -0.755,-24.73 -0.592,-36.63 0.583,-42.717 -1.933,-87.054 -0.345,-129.603 -0.806,-13.128 -0.105,-34.941 -0.104,-48.637 l 1.212,-119.948 c 20.679,-1.544 58.171,-0.3 79.812,-0.358 z"
     id="path13"
     style="fill:url(#Gradient2);filter:url(#filter95)" />
  <path
     fill="#012927"
     d="m 187.302,726.742 c 20.679,-1.544 58.171,-0.3 79.812,-0.358 3.446,2.227 7.66,1.774 11.731,1.885 0.447,7.015 -5.923,5.321 0.189,12.637 0.901,21.993 -16.947,69.665 -27.94,89.763 -7.819,14.293 -19.032,30.425 -26.838,45.393 -7.292,13.979 -13.755,35.75 -22.866,47.909 -2.119,0.329 -2.054,0.13 -4.03,-0.835 -1.048,0.776 -1.805,1.373 -2.924,2.05 -0.104,-2.935 0.417,-3.474 -1.039,-5.317 l -1.671,1.359 C 191.278,909.846 188,903.893 187.68,896.146 l -1.486,-0.819 c -0.806,-13.128 -0.105,-34.941 -0.104,-48.637 z"
     id="path14"
     style="filter:url(#filter97)" />
  <path
     fill="url(#Gradient1)"
     d="m 1342.39,653.624 c -44.11,65.842 -128.22,91.927 -201.85,62.6 -73.62,-29.327 -116.76,-106.098 -103.51,-184.235 13.24,-78.136 79.26,-136.408 158.44,-139.839 79.17,-3.432 149.99,48.909 169.94,125.608 12.1,46.498 3.72,95.95 -23.02,135.866 z"
     id="path15"
     style="fill:url(#Gradient1);filter:url(#filter99)" />
  <path
     fill="#012927"
     fill-opacity="0.294118"
     d="m 521.163,707.707 c 0.568,7.784 0.984,15.579 1.247,23.38 l -1.131,-0.46 c -0.072,2.179 -0.111,4.496 -0.244,6.659 -1.509,-5.19 -1.668,-5.981 -1.656,-11.365 l 0.367,-0.117 c 1.558,-2.014 1.204,-14.016 1.417,-18.097 z"
     id="path16"
     style="filter:url(#filter101)" />
</svg>
