<svg version="1.1" xmlns="http://www.w3.org/2000/svg" style="display: block;" viewBox="0 0 1536 1536" width="384" height="384" preserveAspectRatio="none">
<defs>
	<linearGradient id="Gradient1" gradientUnits="userSpaceOnUse" x1="1167.38" y1="396.83" x2="1236.54" y2="722.522">
		<stop class="stop0" offset="0" stop-opacity="1" stop-color="rgb(1,75,80)"/>
		<stop class="stop1" offset="1" stop-opacity="1" stop-color="rgb(2,124,94)"/>
	</linearGradient>
	<linearGradient id="Gradient2" gradientUnits="userSpaceOnUse" x1="221.848" y1="833.386" x2="552.395" y2="985.372">
		<stop class="stop0" offset="0" stop-opacity="1" stop-color="rgb(1,42,41)"/>
		<stop class="stop1" offset="1" stop-opacity="1" stop-color="rgb(2,103,95)"/>
	</linearGradient>
	<linearGradient id="Gradient3" gradientUnits="userSpaceOnUse" x1="589.904" y1="355.38" x2="705.423" y2="551.609">
		<stop class="stop0" offset="0" stop-opacity="1" stop-color="rgb(1,33,31)"/>
		<stop class="stop1" offset="1" stop-opacity="1" stop-color="rgb(1,70,67)"/>
	</linearGradient>
	<linearGradient id="Gradient4" gradientUnits="userSpaceOnUse" x1="997.314" y1="1101.52" x2="879.499" y2="892.441">
		<stop class="stop0" offset="0" stop-opacity="1" stop-color="rgb(2,217,9)"/>
		<stop class="stop1" offset="1" stop-opacity="1" stop-color="rgb(0,139,70)"/>
	</linearGradient>
	<linearGradient id="Gradient5" gradientUnits="userSpaceOnUse" x1="678.182" y1="531.522" x2="916.5" y2="918.097">
		<stop class="stop0" offset="0" stop-opacity="1" stop-color="rgb(1,64,75)"/>
		<stop class="stop1" offset="1" stop-opacity="1" stop-color="rgb(1,141,88)"/>
	</linearGradient>
</defs>
<path transform="translate(0,0)" fill="url(#Gradient5)" d="M 522.063 391.818 C 542.181 390.12 579.214 391.273 600.298 391.285 L 761.293 391.194 C 789.991 391.162 828.845 392.195 856.469 389.94 C 862.819 401.941 873.533 413.83 878.671 425.039 C 892.265 443.515 908.611 470.81 921.555 490.374 C 957.836 544.623 993.583 599.229 1028.79 654.182 C 1033.87 661.953 1076.14 722.872 1076.32 727.763 C 1077.5 760.511 1077.94 805.443 1076.81 838.276 C 1077.74 889.049 1076.42 940.984 1076.87 991.881 C 1076.97 1003.33 1077.95 1053.29 1075.79 1061.47 C 1061.63 1064.15 1027.36 1063.42 1012.02 1063.36 L 914.956 1063.16 L 803.483 1063.3 C 787.536 1063.29 756.087 1064.05 741.566 1061.66 C 732.419 1045.38 718.562 1028.87 709.427 1013.25 C 707.116 1010.52 701.228 1001.22 698.806 997.722 C 689.219 984.163 679.947 970.383 670.999 956.394 C 649.498 922.803 627.816 889.329 605.953 855.974 C 583.292 821.673 559.757 787.767 538.247 752.809 C 533.825 745.62 525.031 736.221 522.41 731.087 C 522.147 723.286 521.731 715.491 521.163 707.707 L 521.365 698.612 C 519.554 617.879 521.821 536.44 521.172 455.65 C 521.004 434.767 520.974 412.622 522.063 391.818 z"/>
<path transform="translate(0,0)" fill="url(#Gradient4)" d="M 709.427 1013.25 C 713.985 1014.07 716.205 1020.78 720.325 1025.36 C 722.557 1023.63 721.168 1016.93 722.194 1013.95 C 723.323 1010.68 725.534 1008.06 728.109 1005.8 C 733.642 1000.96 740.978 998.261 746.757 993.666 C 757.556 985.079 766.269 974.192 777.698 966.24 C 786.514 960.107 796.843 955.933 805.333 949.459 C 814.683 942.33 822.529 933.018 832.472 926.677 C 844.888 918.759 859.894 915.272 871.993 906.857 C 887.112 896.343 900.136 880.741 916.281 872.324 C 933.412 863.393 953.711 859.388 971.848 852.54 C 985.703 847.308 1044.6 816.903 1055.67 820.721 C 1059.25 821.954 1061.88 823.028 1065.6 821.802 C 1067.9 821.044 1070.26 820.509 1072.61 819.902 C 1077.07 822.829 1074.02 832.04 1076.81 838.276 C 1077.74 889.049 1076.42 940.984 1076.87 991.881 C 1076.97 1003.33 1077.95 1053.29 1075.79 1061.47 C 1061.63 1064.15 1027.36 1063.42 1012.02 1063.36 L 914.956 1063.16 L 803.483 1063.3 C 787.536 1063.29 756.087 1064.05 741.566 1061.66 C 732.419 1045.38 718.562 1028.87 709.427 1013.25 z"/>
<path transform="translate(0,0)" fill="url(#Gradient3)" d="M 522.063 391.818 C 542.181 390.12 579.214 391.273 600.298 391.285 L 761.293 391.194 C 789.991 391.162 828.845 392.195 856.469 389.94 C 862.819 401.941 873.533 413.83 878.671 425.039 C 875.178 422.995 872.865 421.76 869.084 420.115 C 854.144 432.324 840.089 447.035 821.994 455.088 C 814.854 458.265 797.801 461.524 790.875 464.837 C 782.618 468.786 775.015 474.95 765.598 479.314 C 754.075 484.655 740.415 497.818 728.994 505.365 L 616.803 580.503 C 610.287 584.861 600.284 587.898 594.78 592.378 C 583.72 601.38 572.367 610.493 561.489 619.7 C 549.743 629.642 532.646 638.373 526.276 652.613 C 520.374 665.806 525.637 685.852 521.365 698.612 C 519.554 617.879 521.821 536.44 521.172 455.65 C 521.004 434.767 520.974 412.622 522.063 391.818 z"/>
<path transform="translate(0,0)" fill="url(#Gradient2)" d="M 267.114 726.384 L 431.782 725.783 L 486.833 725.283 C 494.906 725.221 511.978 724.758 519.379 725.921 C 519.367 731.305 519.526 732.096 521.035 737.286 C 523.533 745.969 522.271 827.418 522.357 842.905 L 523.085 990.46 C 523.058 1016.44 524.857 1036.37 521.904 1062.31 C 509.529 1063.75 490.012 1062.98 477.036 1062.85 C 453.216 1062.51 429.394 1062.41 405.572 1062.55 C 358.191 1062.81 310.809 1062.72 263.429 1062.29 C 240.992 1062.21 208.3 1063.23 187.131 1061.56 C 186.206 1049.8 186.376 1036.83 186.539 1024.93 C 187.122 982.213 184.606 937.876 186.194 895.327 C 185.388 882.199 186.089 860.386 186.09 846.69 L 187.302 726.742 C 207.981 725.198 245.473 726.442 267.114 726.384 z"/>
<path transform="translate(0,0)" fill="rgb(1,41,39)" d="M 187.302 726.742 C 207.981 725.198 245.473 726.442 267.114 726.384 C 270.56 728.611 274.774 728.158 278.845 728.269 C 279.292 735.284 272.922 733.59 279.034 740.906 C 279.935 762.899 262.087 810.571 251.094 830.669 C 243.275 844.962 232.062 861.094 224.256 876.062 C 216.964 890.041 210.501 911.812 201.39 923.971 C 199.271 924.3 199.336 924.101 197.36 923.136 C 196.312 923.912 195.555 924.509 194.436 925.186 C 194.332 922.251 194.853 921.712 193.397 919.869 L 191.726 921.228 C 191.278 909.846 188 903.893 187.68 896.146 L 186.194 895.327 C 185.388 882.199 186.089 860.386 186.09 846.69 L 187.302 726.742 z"/>
<path transform="translate(0,0)" fill="url(#Gradient1)" d="M 1342.39 653.624 C 1298.28 719.466 1214.17 745.551 1140.54 716.224 C 1066.92 686.897 1023.78 610.126 1037.03 531.989 C 1050.27 453.853 1116.29 395.581 1195.47 392.15 C 1274.64 388.718 1345.46 441.059 1365.41 517.758 C 1377.51 564.256 1369.13 613.708 1342.39 653.624 z"/>
<path transform="translate(0,0)" fill="rgb(1,41,39)" fill-opacity="0.294118" d="M 521.163 707.707 C 521.731 715.491 522.147 723.286 522.41 731.087 L 521.279 730.627 C 521.207 732.806 521.168 735.123 521.035 737.286 C 519.526 732.096 519.367 731.305 519.379 725.921 L 519.746 725.804 C 521.304 723.79 520.95 711.788 521.163 707.707 z"/>
</svg>