<svg width="100" height="100" viewBox="0 0 100 100" fill="none" xmlns="http://www.w3.org/2000/svg">
<g clip-path="url(#clip0_265_1249)">
<path d="M3.125 34.375C4.63438 34.375 5.31562 35.0281 6.70312 36.5125C8.33125 38.2469 10.5563 40.625 14.8406 40.625C19.125 40.625 21.35 38.2469 22.9781 36.5125C24.3625 35.0281 25.0437 34.375 26.5531 34.375C28.0625 34.375 28.7406 35.0281 30.1313 36.5125C31.7563 38.2469 33.9844 40.625 38.2688 40.625C42.55 40.625 44.7781 38.2469 46.4031 36.5125C47.7906 35.0281 48.4688 34.375 49.9781 34.375C51.4875 34.375 52.1656 35.0281 53.5563 36.5125C55.1813 38.2469 57.4094 40.625 61.6906 40.625C65.9719 40.625 68.2 38.2469 69.8281 36.5125C71.2187 35.0281 71.8969 34.375 73.4062 34.375C74.9219 34.375 75.6031 35.0313 76.9938 36.5156C78.625 38.25 80.8563 40.625 85.1406 40.625C89.425 40.625 91.6562 38.25 93.2844 36.5156C94.6781 35.0313 95.3594 34.375 96.875 34.375C98.6 34.375 100 32.975 100 31.25C100 29.525 98.6 28.125 96.875 28.125C92.5875 28.125 90.3594 30.5 88.7312 32.2344C87.3375 33.7187 86.6563 34.375 85.1406 34.375C83.625 34.375 82.9438 33.7187 81.5531 32.2344C79.925 30.5 77.6937 28.125 73.4062 28.125C69.1219 28.125 66.8969 30.5031 65.2687 32.2375C63.8781 33.7219 63.2031 34.375 61.6906 34.375C60.1781 34.375 59.5031 33.7219 58.1125 32.2375C56.4875 30.5031 54.2625 28.125 49.9781 28.125C45.6937 28.125 43.4687 30.5031 41.8406 32.2375C40.4531 33.7219 39.7781 34.375 38.2688 34.375C36.7594 34.375 36.0781 33.7219 34.6906 32.2375C33.0625 30.5031 30.8344 28.125 26.5531 28.125C22.2687 28.125 20.0438 30.5031 18.4156 32.2375C17.0281 33.7219 16.35 34.375 14.8406 34.375C13.3313 34.375 12.6531 33.7219 11.2625 32.2375C9.63438 30.5031 7.40938 28.125 3.125 28.125C1.4 28.125 0 29.525 0 31.25C0 32.975 1.4 34.375 3.125 34.375Z" fill="black"/>
<path d="M96.875 43.75C92.5875 43.75 90.3594 46.125 88.7312 47.8594C87.3375 49.3437 86.6563 50 85.1406 50C83.625 50 82.9438 49.3437 81.5531 47.8594C79.925 46.125 77.6937 43.75 73.4062 43.75C69.1219 43.75 66.8969 46.1281 65.2687 47.8625C63.8781 49.3469 63.2031 50 61.6906 50C60.1781 50 59.5031 49.3469 58.1125 47.8625C56.4875 46.1281 54.2625 43.75 49.9781 43.75C45.6937 43.75 43.4687 46.1281 41.8406 47.8625C40.4531 49.3469 39.7781 50 38.2688 50C36.7594 50 36.0781 49.3469 34.6906 47.8625C33.0625 46.1281 30.8344 43.75 26.5531 43.75C22.2687 43.75 20.0438 46.1281 18.4156 47.8625C17.0281 49.3469 16.35 50 14.8406 50C13.3313 50 12.6531 49.3469 11.2625 47.8625C9.63438 46.1281 7.40938 43.75 3.125 43.75C1.4 43.75 0 45.15 0 46.875C0 48.6 1.4 50 3.125 50C4.63438 50 5.31562 50.6531 6.70312 52.1375C8.33125 53.8719 10.5563 56.25 14.8406 56.25C19.125 56.25 21.35 53.8719 22.9781 52.1375C24.3625 50.6531 25.0437 50 26.5531 50C28.0625 50 28.7406 50.6531 30.1313 52.1375C31.7563 53.8719 33.9844 56.25 38.2688 56.25C42.55 56.25 44.7781 53.8719 46.4031 52.1375C47.7906 50.6531 48.4688 50 49.9781 50C51.4875 50 52.1656 50.6531 53.5563 52.1375C55.1813 53.8719 57.4094 56.25 61.6906 56.25C65.9719 56.25 68.2 53.8719 69.8281 52.1375C71.2187 50.6531 71.8969 50 73.4062 50C74.9219 50 75.6031 50.6562 76.9938 52.1406C78.625 53.875 80.8563 56.25 85.1406 56.25C89.425 56.25 91.6562 53.875 93.2844 52.1406C94.6781 50.6562 95.3594 50 96.875 50C98.6 50 100 48.6 100 46.875C100 45.15 98.6 43.75 96.875 43.75Z" fill="black"/>
<path d="M96.875 59.375C92.5875 59.375 90.3594 61.75 88.7312 63.4844C87.3375 64.9688 86.6563 65.625 85.1406 65.625C83.625 65.625 82.9438 64.9688 81.5531 63.4844C79.925 61.75 77.6937 59.375 73.4062 59.375C69.1219 59.375 66.8969 61.7531 65.2687 63.4875C63.8781 64.9719 63.2031 65.625 61.6906 65.625C60.1781 65.625 59.5031 64.9719 58.1125 63.4875C56.4875 61.7531 54.2625 59.375 49.9781 59.375C45.6937 59.375 43.4687 61.7531 41.8406 63.4875C40.4531 64.9719 39.7781 65.625 38.2688 65.625C36.7594 65.625 36.0781 64.9719 34.6906 63.4875C33.0625 61.7531 30.8344 59.375 26.5531 59.375C22.2687 59.375 20.0438 61.7531 18.4156 63.4875C17.0281 64.9719 16.35 65.625 14.8406 65.625C13.3313 65.625 12.6531 64.9719 11.2625 63.4875C9.63438 61.7531 7.40938 59.375 3.125 59.375C1.4 59.375 0 60.775 0 62.5C0 64.225 1.4 65.625 3.125 65.625C4.63438 65.625 5.31562 66.2781 6.70312 67.7625C8.33125 69.4969 10.5563 71.875 14.8406 71.875C19.125 71.875 21.35 69.4969 22.9781 67.7625C24.3625 66.2781 25.0437 65.625 26.5531 65.625C28.0625 65.625 28.7406 66.2781 30.1313 67.7625C31.7563 69.4969 33.9844 71.875 38.2688 71.875C42.55 71.875 44.7781 69.4969 46.4031 67.7625C47.7906 66.2781 48.4688 65.625 49.9781 65.625C51.4875 65.625 52.1656 66.2781 53.5563 67.7625C55.1813 69.4969 57.4094 71.875 61.6906 71.875C65.9719 71.875 68.2 69.4969 69.8281 67.7625C71.2187 66.2781 71.8969 65.625 73.4062 65.625C74.9219 65.625 75.6031 66.2812 76.9938 67.7656C78.625 69.5 80.8563 71.875 85.1406 71.875C89.425 71.875 91.6562 69.5 93.2844 67.7656C94.6781 66.2812 95.3594 65.625 96.875 65.625C98.6 65.625 100 64.225 100 62.5C100 60.775 98.6 59.375 96.875 59.375Z" fill="black"/>
</g>
<defs>
<clipPath id="clip0_265_1249">
<rect width="100" height="100" fill="white"/>
</clipPath>
</defs>
</svg>
