<svg width="100" height="100" viewBox="0 0 100 100" fill="none" xmlns="http://www.w3.org/2000/svg">
<g clip-path="url(#clip0_265_1181)">
<path d="M91.6406 15.7031H8.35937C3.96484 15.7031 0.390625 19.2773 0.390625 23.6719V55.0195C0.390625 59.4141 3.96484 62.9883 8.35937 62.9883H91.6602C96.0547 62.9883 99.6289 59.4141 99.6289 55.0195V23.6719C99.6094 19.2773 96.0352 15.7031 91.6406 15.7031ZM94.1016 55.0195C94.1016 56.3672 93.0078 57.4609 91.6602 57.4609H8.35937C7.01172 57.4609 5.91797 56.3672 5.91797 55.0195V23.6719C5.91797 22.3242 7.01172 21.2305 8.35937 21.2305H91.6602C93.0078 21.2305 94.1016 22.3242 94.1016 23.6719V55.0195Z" fill="black"/>
<path d="M86.1914 46.9141H13.8086C12.2852 46.9141 11.0547 48.1445 11.0547 49.668C11.0547 51.1914 12.2852 52.4219 13.8086 52.4219H86.2109C87.7344 52.4219 88.9648 51.1914 88.9648 49.668C88.9648 48.1445 87.7148 46.9141 86.1914 46.9141Z" fill="black"/>
<path d="M86.4453 25.9766C84.9219 25.9766 83.6914 27.207 83.6914 28.7305V29.6484C83.6914 31.1719 84.9219 32.4023 86.4453 32.4023C87.9688 32.4023 89.1992 31.1719 89.1992 29.6484V28.7305C89.1992 27.207 87.9688 25.9766 86.4453 25.9766Z" fill="black"/>
<path d="M86.4453 36.4062C84.9219 36.4062 83.6914 37.6367 83.6914 39.1602V40.0781C83.6914 41.6016 84.9219 42.832 86.4453 42.832C87.9688 42.832 89.1992 41.6016 89.1992 40.0781V39.1602C89.1992 37.6563 87.9688 36.4062 86.4453 36.4062Z" fill="black"/>
<path d="M20.8789 67.2072C19.3945 66.8361 17.9102 67.7345 17.5391 69.2189L15.4883 77.3829C15.1172 78.8673 16.0156 80.3712 17.5 80.7228C19.1992 81.1134 20.5274 79.9611 20.8399 78.7111L22.8906 70.547C23.2617 69.0822 22.3633 67.5783 20.8789 67.2072Z" fill="black"/>
<path d="M40.2929 70.3906C38.7695 70.2539 37.4414 71.3867 37.3242 72.9101L36.6406 81.3085C36.5234 82.832 37.6367 84.1992 39.1601 84.2773C40.7422 84.375 42.0117 83.2031 42.1289 81.7578L42.8125 73.3593C42.9492 71.8554 41.8164 70.5273 40.2929 70.3906Z" fill="black"/>
<path d="M82.461 69.2186C82.0899 67.7342 80.5859 66.8553 79.1211 67.2069C77.6367 67.578 76.7383 69.0819 77.1094 70.5467L79.1602 78.7108C79.4727 79.9608 80.8203 81.1131 82.5 80.7225C83.9844 80.371 84.8828 78.8475 84.5117 77.3827L82.461 69.2186Z" fill="black"/>
<path d="M59.7071 70.3907C58.1836 70.5078 57.0508 71.836 57.1875 73.3594L57.8711 81.7578C57.9883 83.2032 59.2774 84.375 60.8399 84.2774C62.3633 84.1797 63.4766 82.8321 63.3594 81.3086L62.6758 72.9102C62.5391 71.4063 61.2305 70.2539 59.7071 70.3907Z" fill="black"/>
</g>
<defs>
<clipPath id="clip0_265_1181">
<rect width="100" height="100" fill="white"/>
</clipPath>
</defs>
</svg>
