<svg width="100" height="100" viewBox="0 0 100 100" fill="none" xmlns="http://www.w3.org/2000/svg">
<g clip-path="url(#clip0_265_1207)">
<path d="M98.7225 57.6769L92.5812 53.4828L94.2867 52.1203C95.7973 50.9136 95.7451 48.5914 94.1732 47.4564L37.8396 6.77378C35.3094 4.94624 31.7961 5.42124 29.8414 7.85425L11.3275 30.8984C9.22207 33.5197 9.75352 37.382 12.4902 39.3365L26.5645 49.3873L20.9141 57.415C19.9789 58.7437 20.3045 60.5806 21.6385 61.5076L23.6525 62.9064C20.3662 66.0775 15.959 67.8716 11.3557 67.8716H5.85938V61.524C5.85938 59.906 4.54766 58.5943 2.92969 58.5943C1.31172 58.5943 0 59.906 0 61.524V91.4068C0 93.0248 1.31172 94.3365 2.92969 94.3365C4.54766 94.3365 5.85938 93.0248 5.85938 91.4068V85.4498H9.83047C20.3465 85.4498 30.6277 81.0271 37.9303 72.8228L40.8605 74.858C42.198 75.7869 44.0369 75.446 44.9531 74.1009L50.2607 66.3093L62.3285 74.9273C63.3936 75.6878 64.8357 75.6503 65.8598 74.832L70.2322 71.3386L81.6014 79.5216C82.8643 80.4306 84.6164 80.1935 85.5928 78.9835L99.3504 61.9363C100.423 60.6068 100.135 58.6412 98.7225 57.6769ZM9.83047 79.5902H5.85938V73.7308H11.3555C17.8703 73.7308 24.0895 71.0298 28.5344 66.2968L33.0766 69.4515C27.1174 75.8462 18.6369 79.5902 9.83047 79.5902ZM41.7746 68.3587L27.4021 58.3767L31.3328 52.7923L45.4912 62.9033L41.7746 68.3587ZM63.9318 68.8722L15.8953 34.5681L34.4092 11.524L87.617 49.9492L63.9318 68.8722ZM82.7738 73.146L74.9857 67.5404L87.7932 57.308L92.7975 60.7257L82.7738 73.146Z" fill="black"/>
<path d="M73.4376 50.0005C75.0556 50.0005 76.3673 48.6888 76.3673 47.0708C76.3673 45.4528 75.0556 44.1411 73.4376 44.1411C71.8196 44.1411 70.5079 45.4528 70.5079 47.0708C70.5079 48.6888 71.8196 50.0005 73.4376 50.0005Z" fill="black"/>
</g>
<defs>
<clipPath id="clip0_265_1207">
<rect width="100" height="100" fill="white"/>
</clipPath>
</defs>
</svg>
