<svg width="100" height="100" viewBox="0 0 100 100" fill="none" xmlns="http://www.w3.org/2000/svg">
<g clip-path="url(#clip0_256_301)">
<path d="M47.0703 29.4923H52.9297V35.3521H47.0703V29.4923Z" fill="black"/>
<path d="M35.3507 29.4923H41.2101V35.3521H35.3507V29.4923Z" fill="black"/>
<path d="M23.6312 29.4923H29.4905V35.3521H23.6312V29.4923Z" fill="black"/>
<path d="M11.9116 29.4923H17.7709V35.3521H11.9116V29.4923Z" fill="black"/>
<path d="M58.7899 29.4923H64.6492V35.3521H58.7899V29.4923Z" fill="black"/>
<path d="M70.5095 29.4923H76.3688V35.3521H70.5095V29.4923Z" fill="black"/>
<path d="M82.229 29.4923H88.0884V35.3521H82.229V29.4923Z" fill="black"/>
<path d="M100 47.0699H0V17.7714H100V47.0699ZM5.8594 41.2105H94.1406V23.6308H5.8594V41.2105Z" fill="black"/>
<path d="M47.0703 64.651H52.9297V70.5108H47.0703V64.651Z" fill="black"/>
<path d="M35.3507 64.651H41.2101V70.5108H35.3507V64.651Z" fill="black"/>
<path d="M23.6312 64.651H29.4905V70.5108H23.6312V64.651Z" fill="black"/>
<path d="M11.9116 64.651H17.7709V70.5108H11.9116V64.651Z" fill="black"/>
<path d="M58.7899 64.651H64.6492V70.5108H58.7899V64.651Z" fill="black"/>
<path d="M70.5095 64.651H76.3688V70.5108H70.5095V64.651Z" fill="black"/>
<path d="M82.229 64.651H88.0884V70.5108H82.229V64.651Z" fill="black"/>
<path d="M100 82.2286H0V52.9301H100V82.2286ZM5.8594 76.3692H94.1406V58.7895H5.8594V76.3692Z" fill="black"/>
</g>
<defs>
<clipPath id="clip0_256_301">
<rect width="100" height="100" fill="white"/>
</clipPath>
</defs>
</svg>
