<svg width="100" height="100" viewBox="0 0 100 100" fill="none" xmlns="http://www.w3.org/2000/svg">
<g clip-path="url(#clip0_265_1391)">
<path d="M90.4229 45.1126C88.5041 46.0121 86.8469 46.7888 83.3326 46.7888C79.8184 46.7888 78.1611 46.0121 76.2424 45.1126C74.0123 44.0673 71.4848 42.8826 66.6652 42.8826C61.8461 42.8826 59.3186 44.0673 57.0885 45.1126C55.1697 46.0121 53.5127 46.7888 49.9986 46.7888C46.4846 46.7888 44.8275 46.0121 42.909 45.1126C40.6791 44.0673 38.1516 42.8826 33.3324 42.8826C28.5133 42.8826 25.9857 44.0673 23.7557 45.1126C21.8369 46.0121 20.1799 46.7888 16.666 46.7888C13.1521 46.7888 11.4951 46.0121 9.57656 45.1126C7.34668 44.0673 4.81914 42.8826 0 42.8826V48.7419C3.51406 48.7419 5.17109 49.5187 7.08965 50.4181C9.31953 51.4634 11.8471 52.6482 16.6662 52.6482C21.4854 52.6482 24.0129 51.4634 26.243 50.4181C28.1617 49.5187 29.8187 48.7419 33.3326 48.7419C36.8465 48.7419 38.5035 49.5187 40.4221 50.4181C42.652 51.4634 45.1795 52.6482 49.9986 52.6482C54.8178 52.6482 57.3453 51.4634 59.5754 50.4181C61.4941 49.5187 63.1512 48.7419 66.6652 48.7419C70.1795 48.7419 71.8367 49.5187 73.7555 50.4181C75.9855 51.4634 78.5131 52.6482 83.3326 52.6482C88.1521 52.6482 90.6797 51.4634 92.9098 50.4181C94.8285 49.5187 96.4857 48.7419 100 48.7419V42.8826C95.1807 42.8826 92.6529 44.0673 90.4229 45.1126Z" fill="black"/>
<path d="M83.3326 61.8279C79.8184 61.8279 78.1611 61.0511 76.2424 60.1517C74.0123 59.1064 71.4848 57.9216 66.6652 57.9216C61.8461 57.9216 59.3186 59.1064 57.0885 60.1517C55.1697 61.0511 53.5127 61.8279 49.9986 61.8279C46.4846 61.8279 44.8275 61.0511 42.909 60.1517C40.6791 59.1064 38.1516 57.9216 33.3324 57.9216C28.5133 57.9216 25.9857 59.1064 23.7557 60.1517C21.8369 61.0511 20.1799 61.8279 16.666 61.8279C13.1521 61.8279 11.4951 61.0511 9.57656 60.1517C7.34668 59.1064 4.81914 57.9216 0 57.9216V63.781C3.51406 63.781 5.17109 64.5578 7.08965 65.4572C9.31953 66.5025 11.8471 67.6873 16.6662 67.6873C21.4854 67.6873 24.0129 66.5025 26.243 65.4572C28.1617 64.5578 29.8187 63.781 33.3326 63.781C36.8465 63.781 38.5035 64.5578 40.4221 65.4572C42.652 66.5025 45.1795 67.6873 49.9986 67.6873C54.8178 67.6873 57.3453 66.5025 59.5754 65.4572C61.4941 64.5578 63.1512 63.781 66.6652 63.781C70.1795 63.781 71.8367 64.5578 73.7555 65.4572C75.9855 66.5025 78.5131 67.6873 83.3326 67.6873C88.1521 67.6873 90.6797 66.5025 92.9098 65.4572C94.8285 64.5578 96.4857 63.781 100 63.781V57.9216C95.1807 57.9216 92.6529 59.1064 90.4229 60.1517C88.5041 61.0511 86.8469 61.8279 83.3326 61.8279Z" fill="black"/>
<path d="M83.3326 76.7493C79.8184 76.7493 78.1611 75.9725 76.2424 75.0731C74.0123 74.0278 71.4848 72.843 66.6652 72.843C61.8461 72.843 59.3186 74.0278 57.0885 75.0731C55.1697 75.9725 53.5127 76.7493 49.9986 76.7493C46.4846 76.7493 44.8275 75.9725 42.909 75.0731C40.6791 74.0278 38.1516 72.843 33.3324 72.843C28.5133 72.843 25.9857 74.0278 23.7557 75.0731C21.8369 75.9725 20.1799 76.7493 16.666 76.7493C13.1521 76.7493 11.4951 75.9725 9.57656 75.0731C7.34668 74.0278 4.81914 72.843 0 72.843V78.7024C3.51406 78.7024 5.17109 79.4792 7.08965 80.3786C9.31953 81.4239 11.8471 82.6086 16.6662 82.6086C21.4854 82.6086 24.0129 81.4239 26.243 80.3786C28.1617 79.4792 29.8187 78.7024 33.3326 78.7024C36.8465 78.7024 38.5035 79.4792 40.4221 80.3786C42.652 81.4239 45.1795 82.6086 49.9986 82.6086C54.8178 82.6086 57.3453 81.4239 59.5754 80.3786C61.4941 79.4792 63.1512 78.7024 66.6652 78.7024C70.1795 78.7024 71.8367 79.4792 73.7555 80.3786C75.9855 81.4239 78.5131 82.6086 83.3326 82.6086C88.1521 82.6086 90.6797 81.4239 92.9098 80.3786C94.8285 79.4792 96.4857 78.7024 100 78.7024V72.843C95.1807 72.843 92.6529 74.0278 90.4229 75.0731C88.5041 75.9725 86.8469 76.7493 83.3326 76.7493Z" fill="black"/>
<path d="M83.3326 91.6033C79.8184 91.6033 78.1611 90.8265 76.2424 89.9271C74.0123 88.8818 71.4848 87.697 66.6652 87.697C61.8461 87.697 59.3186 88.8818 57.0885 89.9271C55.1697 90.8265 53.5127 91.6033 49.9986 91.6033C46.4846 91.6033 44.8275 90.8265 42.909 89.9271C40.6791 88.8818 38.1516 87.697 33.3324 87.697C28.5133 87.697 25.9857 88.8818 23.7557 89.9271C21.8369 90.8265 20.1799 91.6033 16.666 91.6033C13.1521 91.6033 11.4951 90.8265 9.57656 89.9271C7.34668 88.8818 4.81914 87.697 0 87.697V93.5564C3.51406 93.5564 5.17109 94.3332 7.08965 95.2326C9.31953 96.2779 11.8471 97.4626 16.6662 97.4626C21.4854 97.4626 24.0129 96.2779 26.243 95.2326C28.1617 94.3332 29.8187 93.5564 33.3326 93.5564C36.8465 93.5564 38.5035 94.3332 40.4221 95.2326C42.652 96.2779 45.1795 97.4626 49.9986 97.4626C54.8178 97.4626 57.3453 96.2779 59.5754 95.2326C61.4941 94.3332 63.1512 93.5564 66.6652 93.5564C70.1795 93.5564 71.8367 94.3332 73.7555 95.2326C75.9855 96.2779 78.5131 97.4626 83.3326 97.4626C88.1521 97.4626 90.6797 96.2779 92.9098 95.2326C94.8285 94.3332 96.4857 93.5564 100 93.5564V87.697C95.1807 87.697 92.6529 88.8818 90.4229 89.9271C88.5041 90.8265 86.8469 91.6033 83.3326 91.6033Z" fill="black"/>
<path d="M14.2392 13.7534V31.1922H20.0986V13.7534L25.4119 19.0668L29.5551 14.9237L17.1689 2.53735L4.78259 14.9237L8.92576 19.0668L14.2392 13.7534Z" fill="black"/>
<path d="M47.0703 13.7534V31.1922H52.9297V13.7534L58.2431 19.0668L62.3863 14.9237L50 2.53735L37.6136 14.9237L41.7568 19.0668L47.0703 13.7534Z" fill="black"/>
<path d="M79.9014 13.7534V31.1922H85.7608V13.7534L91.0742 19.0668L95.2174 14.9237L82.8311 2.53735L70.4449 14.9237L74.5881 19.0668L79.9014 13.7534Z" fill="black"/>
</g>
<defs>
<clipPath id="clip0_265_1391">
<rect width="100" height="100" fill="white"/>
</clipPath>
</defs>
</svg>
