<svg width="100" height="100" viewBox="0 0 100 100" fill="none" xmlns="http://www.w3.org/2000/svg">
<g clip-path="url(#clip0_265_850)">
<g clip-path="url(#clip1_265_850)">
<mask id="mask0_265_850" style="mask-type:luminance" maskUnits="userSpaceOnUse" x="0" y="0" width="100" height="100">
<path d="M0 7.62939e-06H100V100H0V7.62939e-06Z" fill="white"/>
</mask>
<g mask="url(#mask0_265_850)">
<path d="M80.1298 62.084C89.7288 60.5742 97.0702 52.2654 97.0702 42.2422C97.0702 31.1488 88.0772 22.1559 76.9837 22.1559C75.3944 22.1559 73.8487 22.3412 72.3661 22.69C70.1526 11.427 60.2268 2.92969 48.3149 2.92969C34.8393 2.92969 23.9052 13.8033 23.804 27.2551C22.7684 27.0662 21.703 26.9623 20.613 26.9623C10.8468 26.9623 2.92957 34.8795 2.92957 44.6457C2.92957 53.3535 9.22371 60.5912 17.5106 62.0576" stroke="black" stroke-width="5.85937" stroke-miterlimit="10"/>
<path d="M62.854 82.7888C57.6966 82.7888 53.5156 78.608 53.5156 73.4503V58.7334C53.5156 53.5759 57.6966 49.3949 62.854 49.3949C68.0115 49.3949 72.1925 53.5759 72.1925 58.7334V73.4503C72.1925 78.608 68.0115 82.7888 62.854 82.7888Z" stroke="black" stroke-width="5.85937" stroke-miterlimit="10"/>
<path d="M44.0548 73.4505C44.0548 78.6079 39.8739 82.7889 34.7163 82.7889C29.5589 82.7889 25.3778 78.6079 25.3778 73.4505V58.7333C25.3778 53.5759 29.5589 49.395 34.7163 49.395C39.8739 49.395 44.0548 53.5759 44.0548 58.7333" stroke="black" stroke-width="5.85937" stroke-miterlimit="10"/>
<path d="M80.1297 83.8617V82.1547C80.1297 78.4871 83.1027 75.5141 86.7703 75.5141C90.4377 75.5141 93.4109 78.4871 93.4109 82.1547C93.4109 84.1561 92.4258 86.0291 90.7768 87.1631L82.2596 93.0205C80.9262 93.9375 80.1297 95.4521 80.1297 97.0703H96.3406" stroke="black" stroke-width="5.85937" stroke-miterlimit="10"/>
</g>
</g>
</g>
<defs>
<clipPath id="clip0_265_850">
<rect width="100" height="100" fill="white"/>
</clipPath>
<clipPath id="clip1_265_850">
<rect width="100" height="100" fill="white"/>
</clipPath>
</defs>
</svg>
