<svg width="100" height="100" viewBox="0 0 100 100" fill="none" xmlns="http://www.w3.org/2000/svg">
<path d="M56.2071 0.0915898L16.9733 10.7917C16.1952 11.0007 15.5108 11.467 15.0315 12.1147C14.5522 12.7624 14.3064 13.5532 14.3339 14.3584V85.6927C14.3064 86.4979 14.5522 87.2887 15.0315 87.9364C15.5108 88.5841 16.1952 89.0504 16.9733 89.2594L56.2071 99.9595C56.5139 100.013 56.8277 100.013 57.1345 99.9595C57.9225 99.9571 58.6876 99.6937 59.3102 99.2105C59.7418 98.8782 60.0916 98.4515 60.3327 97.9631C60.5738 97.4747 60.6999 96.9375 60.7012 96.3928V3.6583C60.6999 3.1136 60.5738 2.57643 60.3327 2.08801C60.0916 1.59958 59.7418 1.17287 59.3102 0.840599C58.8867 0.483302 58.3857 0.229587 57.8471 0.0995748C57.3085 -0.0304374 56.747 -0.0331714 56.2071 0.0915898ZM53.5678 91.7204L21.4674 82.982V17.0691L53.5678 8.33069V91.7204Z" fill="black"/>
<path d="M78.5348 10.7918H71.4014C70.4554 10.7918 69.5482 11.1676 68.8793 11.8365C68.2104 12.5054 67.8347 13.4126 67.8347 14.3585C67.8347 15.3045 68.2104 16.2117 68.8793 16.8806C69.5482 17.5495 70.4554 17.9252 71.4014 17.9252H78.5348V82.126H71.4014C70.4554 82.126 69.5482 82.5018 68.8793 83.1707C68.2104 83.8396 67.8347 84.7468 67.8347 85.6927C67.8347 86.6387 68.2104 87.5459 68.8793 88.2148C69.5482 88.8837 70.4554 89.2595 71.4014 89.2595H78.5348C80.4267 89.2595 82.2411 88.5079 83.5789 87.1701C84.9167 85.8324 85.6682 84.0179 85.6682 82.126V17.9252C85.6682 16.0333 84.9167 14.2189 83.5789 12.8811C82.2411 11.5434 80.4267 10.7918 78.5348 10.7918Z" fill="black"/>
<path d="M42.8677 57.1591C43.8136 57.1591 44.7208 56.7833 45.3897 56.1144C46.0586 55.4455 46.4344 54.5383 46.4344 53.5923V46.4589C46.4344 45.513 46.0586 44.6058 45.3897 43.9369C44.7208 43.268 43.8136 42.8922 42.8677 42.8922C41.9217 42.8922 41.0145 43.268 40.3456 43.9369C39.6767 44.6058 39.301 45.513 39.301 46.4589V53.5923C39.301 54.5383 39.6767 55.4455 40.3456 56.1144C41.0145 56.7833 41.9217 57.1591 42.8677 57.1591Z" fill="black"/>
</svg>
