<svg width="100" height="100" viewBox="0 0 100 100" fill="none" xmlns="http://www.w3.org/2000/svg">
<g clip-path="url(#clip0_265_1428)">
<g clip-path="url(#clip1_265_1428)">
<path d="M82.6104 53.5316C82.6104 51.8852 81.2753 50.55 79.6281 50.55C77.9809 50.55 76.6458 51.8852 76.6458 53.5316C76.6458 68.1191 64.779 79.9858 50.1916 79.9858C35.6049 79.9858 23.7381 68.1191 23.7381 53.5316C23.7381 51.8852 22.403 50.55 20.7558 50.55C19.1086 50.55 17.7734 51.8852 17.7734 53.5316C17.7734 70.4025 30.7266 84.301 47.2092 85.8117V93.8401H36.142C34.4948 93.8401 33.1597 95.1752 33.1597 96.8224C33.1597 98.4696 34.4948 99.8048 36.142 99.8048H64.2419C65.8883 99.8048 67.2235 98.4696 67.2235 96.8224C67.2235 95.1752 65.8883 93.8401 64.2419 93.8401H53.1739V85.8117C69.6572 84.3018 82.6104 70.4025 82.6104 53.5316Z" fill="black"/>
<path d="M50.1915 72.6274C60.7209 72.6274 69.2872 64.0611 69.2872 53.5318V18.8996C69.2872 8.37099 60.7209 -0.195312 50.1915 -0.195312C39.6629 -0.195312 31.0966 8.37099 31.0966 18.8996V53.5318C31.0966 64.0611 39.6629 72.6274 50.1915 72.6274ZM37.0605 18.8996C37.0605 11.6593 42.9512 5.76936 50.1915 5.76936C57.4318 5.76936 63.3225 11.6593 63.3225 18.8996V53.5318C63.3225 60.7721 57.4318 66.6627 50.1915 66.6627C42.9512 66.6627 37.0605 60.7721 37.0605 53.5318V18.8996Z" fill="black"/>
</g>
</g>
<defs>
<clipPath id="clip0_265_1428">
<rect width="100" height="100" fill="white"/>
</clipPath>
<clipPath id="clip1_265_1428">
<rect width="100" height="100" fill="white"/>
</clipPath>
</defs>
</svg>
