<svg width="100" height="100" viewBox="0 0 100 100" fill="none" xmlns="http://www.w3.org/2000/svg">
<g clip-path="url(#clip0_256_247)">
<g clip-path="url(#clip1_256_247)">
<path d="M88.2812 96.0938H11.7188C7.4041 96.0938 3.90625 92.5959 3.90625 88.2812V11.7188C3.90625 7.4041 7.4041 3.90625 11.7188 3.90625H88.2812C92.5959 3.90625 96.0938 7.4041 96.0938 11.7188V88.2812C96.0938 92.5959 92.5959 96.0938 88.2812 96.0938Z" stroke="black" stroke-width="7.8125" stroke-miterlimit="10" stroke-linecap="round" stroke-linejoin="round"/>
<path d="M18.75 57.8125C18.75 40.5814 32.7689 26.5625 50 26.5625C67.2311 26.5625 81.25 40.5814 81.25 57.8125" stroke="black" stroke-width="7.8125" stroke-miterlimit="10" stroke-linecap="round" stroke-linejoin="round"/>
<path d="M50 73.4375C58.6294 73.4375 65.625 66.4419 65.625 57.8125C65.625 49.1831 58.6294 42.1875 50 42.1875C41.3706 42.1875 34.375 49.1831 34.375 57.8125C34.375 66.4419 41.3706 73.4375 50 73.4375Z" stroke="black" stroke-width="7.8125" stroke-miterlimit="10" stroke-linecap="round" stroke-linejoin="round"/>
<path d="M50 57.8125L61.0486 46.7639" stroke="black" stroke-width="7.8125" stroke-miterlimit="10" stroke-linecap="round" stroke-linejoin="round"/>
<circle cx="19.5312" cy="80.4688" r="3.90625" fill="black"/>
<circle cx="80.4688" cy="80.4688" r="3.90625" fill="black"/>
<circle cx="80.4688" cy="19.5312" r="3.90625" fill="black"/>
<circle cx="19.5312" cy="19.5312" r="3.90625" fill="black"/>
</g>
</g>
<defs>
<clipPath id="clip0_256_247">
<rect width="100" height="100" fill="white"/>
</clipPath>
<clipPath id="clip1_256_247">
<rect width="100" height="100" fill="white"/>
</clipPath>
</defs>
</svg>
