<svg width="100" height="100" viewBox="0 0 100 100" fill="none" xmlns="http://www.w3.org/2000/svg">
<g clip-path="url(#clip0_265_1231)">
<g clip-path="url(#clip1_265_1231)">
<path d="M96.0938 0H3.90625C1.74883 0 0 1.74883 0 3.90625V19.5312C0 21.6887 1.74883 23.4375 3.90625 23.4375H14.8438V31.25H10.9375C8.78008 31.25 7.03125 32.9988 7.03125 35.1562C7.03125 37.3137 8.78008 39.0625 10.9375 39.0625H14.8438V46.875H10.9375C8.78008 46.875 7.03125 48.6238 7.03125 50.7812C7.03125 52.9387 8.78008 54.6875 10.9375 54.6875H14.8438V62.5H10.9375C8.78008 62.5 7.03125 64.2488 7.03125 66.4062C7.03125 68.5637 8.78008 70.3125 10.9375 70.3125H77.3438V77.2344C72.7973 78.8469 69.5312 83.1889 69.5312 88.2812C69.5312 94.743 74.7883 100 81.25 100C87.7117 100 92.9688 94.743 92.9688 88.2812C92.9688 83.1889 89.7027 78.8469 85.1562 77.2344V70.3125H89.0625C91.2199 70.3125 92.9688 68.5637 92.9688 66.4062C92.9688 64.2488 91.2199 62.5 89.0625 62.5H85.1562V54.6875H89.0625C91.2199 54.6875 92.9688 52.9387 92.9688 50.7812C92.9688 48.6238 91.2199 46.875 89.0625 46.875H85.1562V39.0625H89.0625C91.2199 39.0625 92.9688 37.3137 92.9688 35.1562C92.9688 32.9988 91.2199 31.25 89.0625 31.25H85.1562V23.4375H96.0938C98.2512 23.4375 100 21.6887 100 19.5312V3.90625C100 1.74883 98.2512 0 96.0938 0ZM81.25 92.1875C79.0961 92.1875 77.3438 90.4352 77.3438 88.2812C77.3438 86.1273 79.0961 84.375 81.25 84.375C83.4039 84.375 85.1562 86.1273 85.1562 88.2812C85.1562 90.4352 83.4039 92.1875 81.25 92.1875ZM77.3438 7.8125V15.625H22.6562V7.8125H77.3438ZM7.8125 15.625V7.8125H14.8438V15.625H7.8125ZM77.3438 62.5H22.6562V54.6875H77.3438V62.5ZM77.3438 46.875H22.6562V39.0625H77.3438V46.875ZM77.3438 31.25H22.6562V23.4375H77.3438V31.25ZM92.1875 15.625H85.1562V7.8125H92.1875V15.625Z" fill="black"/>
</g>
</g>
<defs>
<clipPath id="clip0_265_1231">
<rect width="100" height="100" fill="white"/>
</clipPath>
<clipPath id="clip1_265_1231">
<rect width="100" height="100" fill="white"/>
</clipPath>
</defs>
</svg>
