<svg width="100" height="100" viewBox="0 0 100 100" fill="none" xmlns="http://www.w3.org/2000/svg">
<g clip-path="url(#clip0_265_1114)">
<path d="M62.5 50.25V15.625C62.5 12.3098 61.183 9.13037 58.8388 6.78617C56.4946 4.44196 53.3152 3.125 50 3.125C46.6848 3.125 43.5054 4.44196 41.1612 6.78617C38.817 9.13037 37.5 12.3098 37.5 15.625V50.25C32.734 53.0017 29.0091 57.2491 26.903 62.3335C24.797 67.418 24.4275 73.0553 25.8519 78.3711C27.2762 83.6869 30.4149 88.3842 34.781 91.7345C39.1471 95.0847 44.4967 96.9006 50 96.9006C55.5034 96.9006 60.8529 95.0847 65.219 91.7345C69.5851 88.3842 72.7238 83.6869 74.1482 78.3711C75.5725 73.0553 75.203 67.418 73.097 62.3335C70.991 57.2491 67.2661 53.0017 62.5 50.25ZM50 90.625C45.7516 90.6135 41.633 89.1596 38.319 86.5014C35.0049 83.8433 32.6918 80.1384 31.7585 75.9937C30.8253 71.8491 31.3273 67.5104 33.1823 63.6883C35.0373 59.8662 38.1353 56.7875 41.9688 54.9563C42.5005 54.703 42.9499 54.3046 43.2651 53.8069C43.5802 53.3093 43.7483 52.7328 43.75 52.1438V15.625C43.75 13.9674 44.4085 12.3777 45.5806 11.2056C46.7527 10.0335 48.3424 9.375 50 9.375C51.6576 9.375 53.2473 10.0335 54.4194 11.2056C55.5915 12.3777 56.25 13.9674 56.25 15.625V52.1344C56.2517 52.7234 56.4198 53.3 56.7349 53.7976C57.0501 54.2952 57.4995 54.6936 58.0313 54.9469C61.8701 56.7752 64.9735 59.8539 66.8323 63.678C68.6912 67.5022 69.195 71.8445 68.2613 75.9927C67.3275 80.1408 65.0116 83.8484 61.6934 86.5072C58.3753 89.166 54.252 90.618 50 90.625Z" fill="black"/>
<path d="M53.125 56.5625V34.375C53.125 33.5462 52.7957 32.7513 52.2097 32.1653C51.6236 31.5792 50.8288 31.25 50 31.25C49.1712 31.25 48.3763 31.5792 47.7903 32.1653C47.2042 32.7513 46.875 33.5462 46.875 34.375V56.5625C43.0811 57.3369 39.7099 59.4925 37.415 62.6112C35.1201 65.73 34.0649 69.5898 34.4541 73.4423C34.8433 77.2948 36.6491 80.8655 39.5214 83.4623C42.3937 86.0591 46.1279 87.4968 50 87.4968C53.8721 87.4968 57.6063 86.0591 60.4786 83.4623C63.3509 80.8655 65.1567 77.2948 65.5458 73.4423C65.935 69.5898 64.8799 65.73 62.585 62.6112C60.29 59.4925 56.9189 57.3369 53.125 56.5625ZM50 81.25C48.1458 81.25 46.3332 80.7002 44.7915 79.67C43.2498 78.6399 42.0482 77.1757 41.3386 75.4627C40.629 73.7496 40.4434 71.8646 40.8051 70.046C41.1668 68.2275 42.0597 66.557 43.3708 65.2459C44.682 63.9348 46.3524 63.0419 48.171 62.6801C49.9896 62.3184 51.8746 62.5041 53.5876 63.2136C55.3007 63.9232 56.7649 65.1248 57.795 66.6665C58.8251 68.2082 59.375 70.0208 59.375 71.875C59.375 74.3614 58.3873 76.746 56.6291 78.5041C54.8709 80.2623 52.4864 81.25 50 81.25Z" fill="black"/>
<path d="M68.75 18.75H81.25C82.0788 18.75 82.8737 18.4208 83.4597 17.8347C84.0458 17.2487 84.375 16.4538 84.375 15.625C84.375 14.7962 84.0458 14.0013 83.4597 13.4153C82.8737 12.8292 82.0788 12.5 81.25 12.5H68.75C67.9212 12.5 67.1263 12.8292 66.5403 13.4153C65.9542 14.0013 65.625 14.7962 65.625 15.625C65.625 16.4538 65.9542 17.2487 66.5403 17.8347C67.1263 18.4208 67.9212 18.75 68.75 18.75Z" fill="black"/>
<path d="M81.25 37.5H68.75C67.9212 37.5 67.1263 37.8292 66.5403 38.4153C65.9542 39.0013 65.625 39.7962 65.625 40.625C65.625 41.4538 65.9542 42.2487 66.5403 42.8347C67.1263 43.4208 67.9212 43.75 68.75 43.75H81.25C82.0788 43.75 82.8737 43.4208 83.4597 42.8347C84.0458 42.2487 84.375 41.4538 84.375 40.625C84.375 39.7962 84.0458 39.0013 83.4597 38.4153C82.8737 37.8292 82.0788 37.5 81.25 37.5Z" fill="black"/>
<path d="M68.75 31.25H75C75.8288 31.25 76.6237 30.9208 77.2097 30.3347C77.7958 29.7487 78.125 28.9538 78.125 28.125C78.125 27.2962 77.7958 26.5013 77.2097 25.9153C76.6237 25.3292 75.8288 25 75 25H68.75C67.9212 25 67.1263 25.3292 66.5403 25.9153C65.9542 26.5013 65.625 27.2962 65.625 28.125C65.625 28.9538 65.9542 29.7487 66.5403 30.3347C67.1263 30.9208 67.9212 31.25 68.75 31.25Z" fill="black"/>
</g>
<defs>
<clipPath id="clip0_265_1114">
<rect width="100" height="100" fill="white"/>
</clipPath>
</defs>
</svg>
