<svg width="100" height="100" viewBox="0 0 100 100" fill="none" xmlns="http://www.w3.org/2000/svg">
<g clip-path="url(#clip0_265_1283)">
<g clip-path="url(#clip1_265_1283)">
<path d="M4.99656 39.0228C5.35056 39.167 5.72516 39.2387 6.09977 39.2387C6.48734 39.2387 6.87491 39.1616 7.23884 39.0075L16.002 35.3095C17.492 34.6801 18.1908 32.962 17.5614 31.4712C16.9328 29.9804 15.2139 29.2823 13.7231 29.911L11.58 30.8158C18.2305 15.676 33.2788 5.7212 50.0222 5.7212C69.1659 5.7212 85.8835 18.666 90.6763 37.2001C91.0181 38.5208 92.2067 39.3974 93.5106 39.3974C93.7532 39.3974 94.0004 39.3669 94.2461 39.3035C95.8124 38.8984 96.7539 37.3001 96.3487 35.7337C90.8876 14.6125 71.837 -0.138184 50.0222 -0.138184C30.8351 -0.138184 13.6033 11.3349 6.08985 28.7506L5.10108 26.4068C4.47165 24.9168 2.75351 24.2179 1.26273 24.8466C-0.22806 25.476 -0.926151 27.1949 -0.297488 28.6849L3.40048 37.4481C3.70261 38.1637 4.27634 38.7306 4.99656 39.0228Z" fill="black"/>
<path d="M99.2403 70.443L95.5423 61.6807C95.2402 60.9643 94.6657 60.3982 93.9462 60.1052C93.226 59.813 92.4196 59.8183 91.7039 60.1205L82.9408 63.8192C81.4508 64.4479 80.7519 66.1668 81.3814 67.6576C82.01 69.1483 83.7289 69.8464 85.2197 69.217L87.6726 68.1817C81.1883 83.7274 65.9295 94.0011 48.9213 94.0011C29.7768 94.0011 13.0593 81.0563 8.26649 62.5222C7.86137 60.9551 6.26301 60.0152 4.69669 60.4188C3.13038 60.8239 2.18891 62.4223 2.59403 63.9886C8.05516 85.1098 27.1058 99.8605 48.9213 99.8605C68.2161 99.8605 85.534 88.2577 92.9788 70.6765L93.8417 72.7212C94.314 73.8404 95.3996 74.5126 96.5425 74.5126C96.9217 74.5126 97.3085 74.4386 97.68 74.2814C99.1708 73.652 99.8689 71.9338 99.2403 70.443Z" fill="black"/>
<path d="M43.5968 82.1091C43.921 82.2266 44.2567 82.2823 44.5886 82.2823C45.4454 82.2823 46.2793 81.9062 46.8469 81.2195L71.3892 51.5328C72.1124 50.6577 72.265 49.4446 71.7821 48.4177C71.2984 47.3915 70.2661 46.7362 69.1316 46.7362H58.4558V20.1744C58.4558 18.9384 57.6806 17.836 56.5179 17.4171C55.356 16.999 54.0559 17.3553 53.2678 18.3075L28.7255 47.9942C28.0023 48.8686 27.8497 50.0824 28.3326 51.1086C28.8163 52.1355 29.8493 52.7909 30.9838 52.7909H41.6597V79.3526C41.6589 80.5886 42.434 81.691 43.5968 82.1091ZM37.2064 46.9315L52.5964 28.3157V49.6658C52.5964 51.284 53.9079 52.5955 55.5261 52.5955H62.9075L47.5183 71.2113V49.8612C47.5183 48.243 46.206 46.9315 44.5886 46.9315H37.2064Z" fill="black"/>
</g>
</g>
<defs>
<clipPath id="clip0_265_1283">
<rect width="100" height="100" fill="white"/>
</clipPath>
<clipPath id="clip1_265_1283">
<rect width="100" height="100" fill="white" transform="translate(-0.333374 -0.333252)"/>
</clipPath>
</defs>
</svg>
