<svg width="100" height="100" viewBox="0 0 100 100" fill="none" xmlns="http://www.w3.org/2000/svg">
<g clip-path="url(#clip0_265_1155)">
<g clip-path="url(#clip1_265_1155)">
<path d="M59.6426 64.0137C58.9663 63.7518 58.2138 63.7694 57.5505 64.0624C56.8871 64.3554 56.3674 64.8999 56.1055 65.5762C53.7344 71.6836 48.8106 76.8203 42.9297 79.3144C42.5991 79.4547 42.2994 79.6588 42.0476 79.9149C41.7958 80.1711 41.597 80.4743 41.4624 80.8073C41.3279 81.1403 41.2602 81.4965 41.2633 81.8556C41.2664 82.2148 41.3402 82.5698 41.4805 82.9004C41.6208 83.231 41.8248 83.5307 42.081 83.7825C42.3371 84.0343 42.6403 84.2331 42.9733 84.3677C43.3063 84.5022 43.6625 84.5699 44.0217 84.5668C44.3808 84.5637 44.7358 84.4899 45.0664 84.3496C52.2774 81.291 58.3106 75.0117 61.2031 67.5527C61.3331 67.2179 61.3959 66.8607 61.3878 66.5016C61.3797 66.1425 61.301 65.7886 61.1561 65.4599C61.0111 65.1312 60.8029 64.8344 60.5432 64.5862C60.2835 64.3381 59.9775 64.1435 59.6426 64.0137Z" fill="black"/>
<path d="M98.4766 34.168H98.4668C97.7324 32.1406 95.4785 28.4121 94.0996 26.2871C91.4473 22.2012 86.7422 15.6738 79.3555 7.74414C79.2734 7.64258 79.1875 7.54883 79.0957 7.44336C78.5679 6.87047 77.9276 6.4126 77.2148 6.09839C76.502 5.78417 75.7321 5.62036 74.9531 5.61719C74.2122 5.61697 73.4787 5.76358 72.7948 6.04853C72.1109 6.33348 71.4903 6.75113 70.9687 7.27734C66.0556 12.2163 61.6035 17.5934 57.668 23.3418C53.748 18.2383 48.7891 12.2656 42.6406 5.66406C42.5254 5.51953 42.4062 5.37695 42.2812 5.24219C41.65 4.55536 40.8837 4.00635 40.0304 3.62958C39.1771 3.25282 38.2551 3.05643 37.3223 3.05273C36.4362 3.05297 35.5591 3.22881 34.7414 3.57009C33.9238 3.91136 33.1819 4.4113 32.5586 5.04102C23.8969 13.7368 16.1662 23.3128 9.49218 33.6133C4.36913 41.6016 2.31249 46.5234 2.28906 46.584L2.24413 46.6953L2.21874 46.7598C0.694997 50.7424 -0.0579458 54.9784 -5.99217e-06 59.2422C0.123041 68.6719 4.20312 77.9648 11.4941 85.4141C18.7852 92.8633 27.959 96.9375 37.2754 96.9375H37.6152C46.8457 96.7871 56.2012 92.5293 63.2793 85.2539C68.1289 80.2715 71.6055 74.2051 73.3574 67.8711C73.8789 67.9102 74.4004 67.9316 74.9199 67.9316H75.1582C88.0605 67.7187 99.666 55.9629 100 42.7734V42.7461C100.051 39.8415 99.5442 36.9541 98.5078 34.2402L98.4766 34.168ZM37.5117 89.5215H37.2754C29.9687 89.5215 22.6934 86.2168 16.7969 80.2207C10.8516 74.1445 7.52343 66.6582 7.42187 59.1426C7.37773 55.8254 7.96157 52.5298 9.14257 49.4297L9.1621 49.3789C9.26171 49.1484 11.25 44.6113 15.7383 37.6211C21.9905 27.9746 29.2116 18.9918 37.2891 10.8125C58.3242 33.3984 64.9902 48.1953 65.3906 49.123C65.4154 49.2012 65.4427 49.2793 65.4726 49.3574L65.4941 49.4121C66.689 52.5405 67.2743 55.8685 67.2187 59.2168C67.1872 60.4478 67.0717 61.6753 66.873 62.8906C66.8496 63 66.8301 63.1113 66.8164 63.2207C64.373 77.2109 51.3672 89.2891 37.5117 89.5215ZM75.0547 60.5059H74.9219C74.8105 60.5059 74.7012 60.5059 74.5898 60.5059C74.6113 60.1348 74.6309 59.7637 74.6387 59.3926V59.3652C74.7123 55.0618 73.9605 50.7841 72.4238 46.7637L72.4062 46.7187L72.3945 46.6875H72.3848C71.5898 44.4648 68.8691 39.5469 65.6914 34.6465C64.748 33.1934 63.6367 31.541 62.3496 29.7109L62.3906 29.6465C66.0506 24.0008 70.2408 18.7171 74.9043 13.8672C87.1953 27.2891 91.1934 35.998 91.5059 36.6914C91.5273 36.7539 91.5488 36.8145 91.5723 36.875V36.8926C92.2663 38.7126 92.6076 40.6481 92.5781 42.5957C92.3359 51.8223 83.9844 60.3516 75.0547 60.5059Z" fill="black"/>
</g>
</g>
<defs>
<clipPath id="clip0_265_1155">
<rect width="100" height="100" fill="white"/>
</clipPath>
<clipPath id="clip1_265_1155">
<rect width="100" height="100" fill="white"/>
</clipPath>
</defs>
</svg>
