<svg width="100" height="100" viewBox="0 0 100 100" fill="none" xmlns="http://www.w3.org/2000/svg">
<path d="M31.2658 66.3924C22.9065 66.3924 15.914 60.0088 15.0419 51.724C14.9218 50.5831 14.9218 49.4169 15.0419 48.276C15.914 39.9914 22.9064 33.6076 31.2658 33.6076C39.6251 33.6076 46.6175 39.9914 47.4896 48.276C47.6095 49.4169 47.6095 50.5831 47.4896 51.724C46.6175 60.0088 39.6251 66.3924 31.2658 66.3924Z" fill="black"/>
<path fill-rule="evenodd" clip-rule="evenodd" d="M31.6139 81.614H68.3862C83.9426 81.614 97.1867 70.2966 99.6133 54.9304C100.129 51.6636 100.129 48.3364 99.6133 45.0696C97.1867 29.7034 83.9426 18.386 68.3862 18.386H31.6139C16.0575 18.386 2.81307 29.7034 0.386849 45.0696C-0.12895 48.3364 -0.12895 51.6636 0.386849 54.9304C2.81307 70.2966 16.0575 81.614 31.6139 81.614ZM31.6139 74.5886C19.5145 74.5886 9.21328 65.7864 7.32623 53.8349C6.92504 51.2941 6.92504 48.7059 7.32623 46.1651C9.21328 34.2137 19.5145 25.4114 31.6139 25.4114H68.3862C80.4856 25.4114 90.7866 34.2137 92.6736 46.1651C93.075 48.7059 93.075 51.2941 92.6736 53.8349C90.7866 65.7864 80.4856 74.5886 68.3862 74.5886H31.6139Z" fill="black"/>
</svg>
