<svg width="100" height="100" viewBox="0 0 100 100" fill="none" xmlns="http://www.w3.org/2000/svg">
<g clip-path="url(#clip0_265_893)">
<path d="M97.1154 10.5769H2.88457C1.2916 10.5769 0 11.8685 0 13.4615V32.6923C0 34.2853 1.2916 35.5769 2.88457 35.5769H8.65371V48.0769C8.65371 59.1208 12.9545 69.5039 20.7637 77.313C28.5729 85.1222 38.9559 89.423 49.9998 89.423C61.0437 89.423 71.4268 85.1222 79.2359 77.313C87.0451 69.5039 91.3459 59.1208 91.3459 48.0769V35.5769H97.115C98.7082 35.5769 99.9996 34.2853 99.9996 32.6923V13.4615C100 11.8685 98.7084 10.5769 97.1154 10.5769ZM85.577 48.0769C85.577 67.6941 69.6174 83.6539 50 83.6539C30.3826 83.6539 14.423 67.6941 14.423 48.0769V35.5769H85.577V48.0769ZM94.2309 29.8076H5.76914V16.346H94.2307V29.8076H94.2309Z" fill="black"/>
<path d="M50 41.3461C39.9263 41.3461 31.7308 49.5416 31.7308 59.6152C31.7308 69.6888 39.9263 77.8843 50 77.8843C60.0736 77.8843 68.2691 69.6888 68.2691 59.6152C68.2691 49.5416 60.0736 41.3461 50 41.3461ZM50 72.1154C43.1074 72.1154 37.5 66.508 37.5 59.6154C37.5 52.7228 43.1074 47.1154 50 47.1154C56.8926 47.1154 62.5 52.7228 62.5 59.6154C62.5 66.508 56.8926 72.1154 50 72.1154Z" fill="black"/>
<path d="M50 53.6539C46.7127 53.6539 44.0385 56.3283 44.0385 59.6155C44.0385 62.9026 46.7127 65.577 50 65.577C53.2873 65.577 55.9615 62.9026 55.9615 59.6155C55.9615 56.3283 53.2873 53.6539 50 53.6539ZM50 59.8076C49.8937 59.8076 49.8076 59.7213 49.8076 59.6153C49.8076 59.5092 49.8937 59.4229 50 59.4229C50.1062 59.4229 50.1924 59.5092 50.1924 59.6153C50.1924 59.7213 50.1062 59.8076 50 59.8076Z" fill="black"/>
<path d="M73.077 20.1924H69.2309C67.6377 20.1924 66.3463 21.484 66.3463 23.077C66.3463 24.6699 67.6379 25.9615 69.2309 25.9615H73.077C74.6701 25.9615 75.9615 24.6699 75.9615 23.077C75.9615 21.484 74.6699 20.1924 73.077 20.1924Z" fill="black"/>
<path d="M84.6154 20.1924H80.7693C79.1762 20.1924 77.8848 21.484 77.8848 23.077C77.8848 24.6699 79.1764 25.9615 80.7693 25.9615H84.6154C86.2086 25.9615 87.5 24.6699 87.5 23.077C87.5 21.484 86.2084 20.1924 84.6154 20.1924Z" fill="black"/>
</g>
<defs>
<clipPath id="clip0_265_893">
<rect width="100" height="100" fill="white"/>
</clipPath>
</defs>
</svg>
