<svg width="100" height="100" viewBox="0 0 100 100" fill="none" xmlns="http://www.w3.org/2000/svg">
<g clip-path="url(#clip0_265_1300)">
<path d="M96.2357 20.7939C97.4129 19.3047 98.1201 17.4271 98.1201 15.3854C98.1201 10.5637 94.1971 6.64062 89.3753 6.64062C84.5528 6.64062 80.6297 10.5637 80.6297 15.3854C80.6297 17.3172 81.263 19.101 82.328 20.5498C80.1437 22.3045 78.6522 24.8863 78.3333 27.8175C72.4548 23.9098 61.8011 18.161 50 18.161C38.2004 18.161 27.5482 23.9082 21.6682 27.816C21.3646 25.0198 19.9905 22.5418 17.9672 20.7962C19.1452 19.3062 19.8524 17.4278 19.8524 15.3854C19.8524 10.5637 15.9294 6.64062 11.1069 6.64062C6.2851 6.64062 2.36206 10.5637 2.36206 15.3854C2.36206 17.3172 2.99301 19.1032 4.05807 20.5513C1.58615 22.538 0 25.5836 0 28.994V90.4984C0 92.1165 1.31149 93.428 2.92969 93.428L97.0703 93.425C98.6885 93.425 100 92.1135 100 90.4953V28.994C100 25.7202 98.539 22.7821 96.2357 20.7939ZM21.7323 47.6997H31.4713V74.231H21.7323V47.6997ZM37.3306 47.6997H47.0703V74.231H37.3306V47.6997ZM52.9297 47.6997H62.6694V74.231H52.9297V47.6997ZM68.5287 47.6997H78.2677V74.231H68.5287V47.6997ZM78.2677 41.8404H68.5287V28.9215C73.1232 31.218 76.6273 33.7204 78.2677 34.9747V41.8404ZM62.6694 41.8404H52.9297V24.1592C56.3377 24.4766 59.6313 25.3143 62.6694 26.4038V41.8404ZM47.0703 41.8404H37.3306V26.3947C40.3656 25.309 43.6577 24.4743 47.0703 24.1585V41.8404ZM31.4713 41.8404H21.7323V34.9724C23.3719 33.7143 26.873 31.2073 31.4713 28.9093V41.8404ZM21.7323 80.0903H31.4713V87.5687H21.7323V80.0903ZM37.3306 80.0903H47.0703V87.5687H37.3306V80.0903ZM52.9297 80.0903H62.6694V87.5687H52.9297V80.0903ZM68.5287 80.0903H78.2677V87.5687H68.5287V80.0903ZM89.3753 12.5C90.966 12.5 92.2607 13.7947 92.2607 15.3854C92.2607 16.9762 90.966 18.2709 89.3753 18.2709C87.7838 18.2709 86.4891 16.9762 86.4891 15.3854C86.4891 13.7947 87.7838 12.5 89.3753 12.5ZM11.1069 12.5C12.6984 12.5 13.9931 13.7947 13.9931 15.3854C13.9931 16.9762 12.6984 18.2709 11.1069 18.2709C9.51614 18.2709 8.22144 16.9762 8.22144 15.3854C8.22144 13.7947 9.51614 12.5 11.1069 12.5ZM5.85938 28.994C5.85938 26.252 8.09097 24.0204 10.833 24.0204H10.8986C13.6414 24.0204 15.8722 26.252 15.8722 28.994V87.5687H5.85938V28.994ZM94.1406 87.5656H84.127V28.994C84.127 26.252 86.3586 24.0204 89.1006 24.0204H89.167C91.909 24.0204 94.1406 26.252 94.1406 28.994V87.5656Z" fill="black"/>
</g>
<defs>
<clipPath id="clip0_265_1300">
<rect width="100" height="100" fill="white"/>
</clipPath>
</defs>
</svg>
