<svg width="100" height="100" viewBox="0 0 100 100" fill="none" xmlns="http://www.w3.org/2000/svg">
<g clip-path="url(#clip0_265_794)">
<g clip-path="url(#clip1_265_794)">
<mask id="mask0_265_794" style="mask-type:luminance" maskUnits="userSpaceOnUse" x="0" y="0" width="100" height="100">
<path d="M0 7.62939e-06H100V100H0V7.62939e-06Z" fill="white"/>
</mask>
<g mask="url(#mask0_265_794)">
<path d="M96.1464 48.174C86.5537 17.5861 55.0882 43.2736 59.1998 2.92969C44.8134 15.6695 47.6439 38.9625 67.8476 43.8516C81.4453 45.8984 89.7213 57.2412 91.6107 73.2422C96.2127 66.8447 98.4689 57.7652 96.1464 48.174Z" stroke="black" stroke-width="5.85937" stroke-miterlimit="10" stroke-linecap="round" stroke-linejoin="round"/>
<path d="M20.013 15.0391C15.4601 36.5234 19.4827 42.157 39.1239 52.5883C60.3613 63.8672 61.0464 85.966 41.7613 97.0703C49.1634 71.1279 29.1257 67.7734 15.7714 60.9467C-5.20515 50.2232 1.89563 23.5963 20.013 15.0391Z" stroke="black" stroke-width="5.85937" stroke-miterlimit="10" stroke-linecap="round" stroke-linejoin="round"/>
</g>
</g>
</g>
<defs>
<clipPath id="clip0_265_794">
<rect width="100" height="100" fill="white"/>
</clipPath>
<clipPath id="clip1_265_794">
<rect width="100" height="100" fill="white"/>
</clipPath>
</defs>
</svg>
