<svg width="100" height="100" viewBox="0 0 100 100" fill="none" xmlns="http://www.w3.org/2000/svg">
<g clip-path="url(#clip0_265_1310)">
<path d="M60.7019 19.9951C72.8247 7.87231 97.0701 7.87231 97.0701 7.87231C97.0701 7.87231 97.0701 32.1177 84.9473 44.2405C76.2882 52.8996 63.9334 54.3993 57.2381 47.7041C50.5429 41.0088 52.0428 28.6542 60.7019 19.9951Z" stroke="black" stroke-width="5.85982" stroke-miterlimit="10"/>
<path d="M77.8341 27.1086L57.4644 47.4782C52.689 52.2535 50.0062 58.7304 50.0062 65.4838V83.8302" stroke="black" stroke-width="5.85982" stroke-miterlimit="10"/>
<path d="M34.0009 38.0292C23.6438 27.6721 2.92993 27.6721 2.92993 27.6721C2.92993 27.6721 2.92993 48.386 13.287 58.743C20.6848 66.1409 31.2401 67.4222 36.9601 61.7023C42.6798 55.9821 41.3987 45.427 34.0009 38.0292Z" stroke="black" stroke-width="5.85982" stroke-miterlimit="10"/>
<path d="M18.7917 43.5337L43.5846 68.3266C47.6962 72.4382 50.0062 78.0148 50.0062 83.8297V95.0573" stroke="black" stroke-width="5.85982" stroke-miterlimit="10"/>
</g>
<defs>
<clipPath id="clip0_265_1310">
<rect width="100" height="100" fill="white"/>
</clipPath>
</defs>
</svg>
