<svg width="100" height="100" viewBox="0 0 100 100" fill="none" xmlns="http://www.w3.org/2000/svg">
<g clip-path="url(#clip0_256_180)">
<g clip-path="url(#clip1_256_180)">
<path d="M43.6949 24.3672C34.3146 26.5543 26.7636 33.9932 24.4578 43.3186C22.1447 52.6738 24.792 62.2096 31.5396 68.8266C33.9263 71.1674 35.3515 74.9191 35.3515 78.8627V79.4922C35.3515 82.0891 36.4845 84.4258 38.2812 86.0361V91.2109C38.2812 96.0572 42.224 100 47.0703 100H52.9297C57.776 100 61.7187 96.0572 61.7187 91.2109V86.0361C63.5154 84.4258 64.6484 82.0893 64.6484 79.4922V78.8512C64.6484 74.9676 66.1498 71.1445 68.6646 68.6244C73.6316 63.6465 76.3672 57.0322 76.3672 50C76.3672 33.1877 60.7873 20.3832 43.6949 24.3672ZM55.8593 91.2109C55.8593 92.8264 54.5451 94.1406 52.9297 94.1406H47.0703C45.4549 94.1406 44.1406 92.8264 44.1406 91.2109V88.2812H55.8593V91.2109ZM64.5168 64.4855C60.8767 68.1334 58.789 73.3693 58.789 78.8512V79.4922C58.789 81.1076 57.4748 82.4219 55.8593 82.4219H44.1406C42.5252 82.4219 41.2109 81.1076 41.2109 79.4922V78.8627C41.2109 73.2965 39.181 68.1137 35.642 64.6432C30.39 59.4928 28.3355 52.0469 30.1457 44.725C31.9279 37.5166 37.7685 31.7654 45.0254 30.0736C58.4379 26.9461 70.5078 36.9586 70.5078 50C70.5078 55.4695 68.3801 60.6139 64.5168 64.4855Z" fill="black"/>
<path d="M27.2123 23.0691L18.9258 14.7828C17.7818 13.6387 15.9267 13.6387 14.7826 14.7828C13.6385 15.927 13.6385 17.7818 14.7826 18.926L23.0691 27.2123C24.2131 28.3564 26.0683 28.3564 27.2123 27.2123C28.3564 26.0682 28.3564 24.2133 27.2123 23.0691Z" fill="black"/>
<path d="M14.8438 47.0703H2.92969C1.31172 47.0703 0 48.382 0 50C0 51.618 1.31172 52.9297 2.92969 52.9297H14.8438C16.4617 52.9297 17.7734 51.618 17.7734 50C17.7734 48.382 16.4617 47.0703 14.8438 47.0703Z" fill="black"/>
<path d="M97.0703 47.0703H85.1562C83.5383 47.0703 82.2266 48.382 82.2266 50C82.2266 51.618 83.5383 52.9297 85.1562 52.9297H97.0703C98.6883 52.9297 100 51.618 100 50C100 48.382 98.6883 47.0703 97.0703 47.0703Z" fill="black"/>
<path d="M85.2174 14.7828C84.0736 13.6387 82.2185 13.6387 81.0742 14.7828L72.7877 23.0691C71.6435 24.2131 71.6435 26.0682 72.7877 27.2123C73.9316 28.3564 75.7867 28.3564 76.9308 27.2123L85.2174 18.926C86.3615 17.782 86.3615 15.927 85.2174 14.7828Z" fill="black"/>
<path d="M50 0C48.382 0 47.0703 1.31172 47.0703 2.92969V14.8438C47.0703 16.4617 48.382 17.7734 50 17.7734C51.618 17.7734 52.9297 16.4617 52.9297 14.8438V2.92969C52.9297 1.31172 51.618 0 50 0Z" fill="black"/>
<path d="M50 35.3516C48.7957 35.3516 47.5689 35.4959 46.3559 35.7801C41.3041 36.9592 37.075 41.1176 35.8326 46.1275C35.4432 47.698 36.4004 49.2867 37.9707 49.6764C39.5414 50.0658 41.1301 49.1082 41.5195 47.5381C42.2346 44.6557 44.7709 42.167 47.69 41.4855C48.4678 41.3033 49.2451 41.2109 50 41.2109C51.618 41.2109 52.9297 39.8992 52.9297 38.2812C52.9297 36.6633 51.618 35.3516 50 35.3516Z" fill="black"/>
</g>
</g>
<defs>
<clipPath id="clip0_256_180">
<rect width="100" height="100" fill="white"/>
</clipPath>
<clipPath id="clip1_256_180">
<rect width="100" height="100" fill="white"/>
</clipPath>
</defs>
</svg>
