<svg width="100" height="100" viewBox="0 0 100 100" fill="none" xmlns="http://www.w3.org/2000/svg">
<g clip-path="url(#clip0_265_1326)">
<g clip-path="url(#clip1_265_1326)">
<path d="M73.2642 23.2649H65.1036V3.4714C65.1036 1.5538 63.5498 0 61.6322 0C59.7146 0 58.1608 1.5538 58.1608 3.4714V23.2649H41.8387V3.4714C41.8387 1.5538 40.2854 0 38.3673 0C36.4502 0 34.8959 1.5538 34.8959 3.4714V23.2649H26.7358C24.8182 23.2649 23.2644 24.8187 23.2644 26.7363V50.0002C23.2644 63.5651 33.4222 74.7944 46.5297 76.5028V96.5291C46.5297 98.4467 48.0831 100 50.0011 100C51.9183 100 53.4725 98.4467 53.4725 96.5291V76.5028C66.5787 74.7948 76.736 63.5651 76.736 50.0002V26.7363C76.7356 24.8187 75.1818 23.2649 73.2642 23.2649ZM69.7928 49.9998C69.7928 60.9134 60.9138 69.7923 50.0007 69.7923C39.0861 69.7923 30.2067 60.9134 30.2067 49.9998V30.2077H69.7923L69.7928 49.9998Z" fill="black"/>
</g>
</g>
<defs>
<clipPath id="clip0_265_1326">
<rect width="100" height="100" fill="white"/>
</clipPath>
<clipPath id="clip1_265_1326">
<rect width="100" height="100" fill="white"/>
</clipPath>
</defs>
</svg>
